PathFileType	4	(X/Y/Z)	G:\Shared drives\HIT\Data\HapticPilot\Subject1\Edited\LHJC1.trc
DataRate	CameraRate	NumFrames	NumMarkers	Units	OrigDataRate	OrigDataStartFrame	OrigNumFrames
50.00	50.00	       5	38	mm	50.00	343	       684
Frame#	Time	r_knee			r_shank(antsup)			r_ankle			r_calc			r_5meta			r_toe			L_knee			L_shank(ant_sup)			L_ankle			L_calc			L_5meta			L_toe			r_mknee			r_mankle			L_mknee			L_mankle			r_sh2			r_sh3			r_sh4			L_sh2			L_sh3			r_thigh1			r_thigh2			r_thigh3			r_thigh4			r_thigh5			L_thigh1			L_thigh2			L_thigh3			L_thigh4			r.ASIS			r.PSIS			L.ASIS			L.PSIS			C7			R_Shoulder			L_Shoulder			Sternum			
		X1	Y1	Z1	X2	Y2	Z2	X3	Y3	Z3	X4	Y4	Z4	X5	Y5	Z5	X6	Y6	Z6	X7	Y7	Z7	X8	Y8	Z8	X9	Y9	Z9	X10	Y10	Z10	X11	Y11	Z11	X12	Y12	Z12	X13	Y13	Z13	X14	Y14	Z14	X15	Y15	Z15	X16	Y16	Z16	X17	Y17	Z17	X18	Y18	Z18	X19	Y19	Z19	X20	Y20	Z20	X21	Y21	Z21	X22	Y22	Z22	X23	Y23	Z23	X24	Y24	Z24	X25	Y25	Z25	X26	Y26	Z26	X27	Y27	Z27	X28	Y28	Z28	X29	Y29	Z29	X30	Y30	Z30	X31	Y31	Z31	X32	Y32	Z32	X33	Y33	Z33	X34	Y34	Z34	X35	Y35	Z35	X36	Y36	Z36	X37	Y37	Z37	X38	Y38	Z38	

343	6.840	763.92291	266.45029	572.16998	780.27448	262.44360	482.20532	708.86664	285.07715	111.31322	621.39789	333.31601	69.14275	817.35907	249.98378	39.54847	861.20239	309.96652	73.60762	764.67029	550.63220	594.48480	794.67926	541.70496	476.22464	706.10272	548.00446	134.68211	622.61957	508.04089	91.00557	827.80939	568.23291	60.13121	861.88397	503.89209	89.47704	769.15802	394.15350	557.66272	725.94501	380.47632	118.21814	764.45740	423.63419	588.62708	720.70691	453.62906	138.99852	771.13196	268.26727	362.58963	704.38397	255.66145	484.67999	688.32806	255.66316	369.81320	711.45087	575.54602	496.33826	698.09344	576.43225	374.71704	800.50751	241.28944	900.48462	815.13708	245.45024	786.08569	771.18195	237.08363	748.65417	688.93604	228.38693	881.68164	707.56421	245.52602	765.96619	829.87073	573.48822	868.11035	842.02887	559.96448	730.75214	716.81146	601.90234	857.17480	730.80542	578.90228	725.02814	822.54218	273.74011	1082.81470	633.50385	354.86243	1135.67029	823.48468	525.96069	1120.52661	637.69531	437.55359	1145.12122	710.44971	383.63342	1622.91345	764.13239	216.74918	1589.39282	774.54852	560.95532	1586.75806	842.00793	378.04745	1537.95752	
344	6.860	764.10175	266.67798	572.21820	780.44958	262.60074	482.20773	708.88794	285.04007	111.29406	621.36194	333.34479	69.13648	817.35114	249.96465	39.51509	861.21082	309.97543	73.59228	763.31476	551.96191	594.45673	793.41168	543.15784	476.39871	705.37897	548.99561	134.42381	622.10632	508.63416	90.74598	827.02814	569.92987	60.21524	861.43811	505.83472	89.55885	768.80273	394.39944	557.55945	725.93701	380.46625	118.18495	764.05469	426.14874	588.89880	720.58807	454.70499	138.90294	771.25879	268.35889	362.54825	704.55524	255.65648	484.57520	688.45215	255.63963	369.81512	710.06506	576.55750	496.43011	696.63806	577.44519	374.90512	800.82587	241.98398	900.71436	815.62695	245.99001	786.37372	771.62549	237.55737	748.88422	689.24567	228.75955	881.87897	707.98126	245.93117	766.12598	828.60883	574.63275	868.13068	840.88959	561.35455	730.96252	715.41229	602.42401	857.38849	729.41614	579.75458	725.22113	822.97504	274.54932	1082.70483	633.60687	355.31729	1135.74292	823.06464	526.96179	1120.62537	637.47943	437.85507	1145.10791	710.86310	384.20526	1622.86975	764.96533	217.22311	1589.34155	774.72131	561.50427	1586.68604	842.27454	378.76288	1537.75134	
345	6.880	764.45898	266.83588	572.39014	780.75549	262.75140	482.28262	708.97614	285.01794	111.32928	621.35938	333.38977	69.15369	817.35199	249.94016	39.52182	861.22284	309.91907	73.60595	761.55853	553.52509	594.79187	791.61670	544.92334	476.86554	703.97559	549.77734	134.20303	621.21039	508.65097	90.24457	825.86395	571.61322	60.33321	860.62018	507.87415	90.00912	768.49548	394.63235	557.59418	726.01221	380.44250	118.25002	762.15540	427.02274	588.67944	720.24872	455.55286	139.06305	771.50403	268.42838	362.54660	704.84088	255.71793	484.64001	688.69995	255.62569	369.94928	707.76019	577.23981	496.66922	694.77417	578.25604	375.08447	800.96686	242.56479	901.12817	816.13403	246.69800	786.78693	772.16498	238.02144	749.28033	689.73846	228.76912	882.24994	708.31329	246.01534	766.37848	827.34424	575.93555	868.15399	839.25317	563.10095	730.79999	714.03613	602.98285	857.79779	727.65881	580.23883	725.45422	823.12848	275.71725	1082.84912	633.70831	355.56192	1135.75964	822.69135	528.06061	1120.87451	637.43195	438.10776	1145.13330	711.41534	384.57175	1622.70422	765.72058	217.66443	1589.21985	774.95526	561.96899	1586.62109	842.68280	379.43289	1537.46399	
346	6.900	765.41174	267.01846	572.59753	781.40118	262.81238	482.38934	709.12537	285.00623	111.42405	621.37585	333.47690	69.28297	817.36737	249.92888	39.49319	861.30133	309.90308	73.56133	758.86621	555.46320	594.85529	788.70251	547.01678	477.06934	701.84802	550.79047	133.67911	619.75476	508.74951	89.11779	823.96722	573.65985	60.55218	859.19623	510.38031	90.71909	769.34393	394.87396	557.84698	726.21332	380.47629	118.37059	761.96564	429.78824	589.02136	719.02130	456.65790	138.91548	771.95715	268.37415	362.69016	705.47095	255.96585	484.91168	689.11938	255.97223	370.18079	703.95758	578.47260	496.44299	691.49493	579.26984	375.04263	801.36230	243.15492	901.43317	816.49878	247.25279	787.14594	772.68384	238.33209	749.67188	690.04572	228.61617	882.35260	708.75702	245.81071	766.63013	825.72260	577.43958	867.95325	837.18567	564.98798	730.49969	712.02441	603.65509	858.27789	725.34430	581.20068	725.86908	822.84015	276.64529	1082.99023	633.62177	356.00943	1135.81213	822.66638	529.09167	1121.01965	637.47162	438.60739	1145.14038	712.00018	384.81003	1622.64478	766.54376	218.13339	1588.91772	775.23224	562.31140	1586.56226	843.18512	379.91837	1537.13147	
347	6.920	766.19379	267.06281	572.47559	782.14258	262.65366	482.21664	709.20306	284.98788	111.39835	621.32764	333.51111	69.33620	817.39313	249.89241	39.45639	861.33453	309.87906	73.48960	754.90320	557.69720	594.67273	784.41602	549.97668	476.52499	698.72546	552.66309	133.09494	617.28949	509.89963	87.76736	821.31555	576.28149	60.85475	856.72675	513.43622	91.62252	771.29327	394.69162	557.92792	726.70123	380.43094	118.39992	759.26501	432.05359	588.28540	716.70050	458.84058	138.66765	772.56177	268.32062	362.60205	706.26428	256.02780	485.05026	689.74603	256.06036	370.31577	700.04230	580.15179	496.35443	687.18567	580.91321	374.68359	801.08496	243.00563	901.73114	816.56537	247.18195	787.32214	772.94482	238.41789	749.84930	689.83026	228.89119	882.26563	708.98590	245.84950	766.48010	823.73450	579.02460	867.34790	834.20435	567.32733	729.73651	709.78979	604.24365	858.63440	722.19818	582.60889	726.01013	822.26581	276.97153	1082.93677	633.47388	356.87372	1135.93628	822.90424	529.64990	1120.67371	637.58008	439.38370	1145.34985	712.67773	384.99362	1622.32983	767.26440	218.46774	1588.52832	775.83563	562.67712	1586.44861	843.79248	380.18253	1536.86035	
